<?xml version="1.0" encoding="UTF-8"?>
<!-- Created with Inkscape (http://www.inkscape.org/) -->
<svg width="128" height="128" version="1.1" viewBox="0 0 128 128" xml:space="preserve"
    xmlns="http://www.w3.org/2000/svg"
    xmlns:cc="http://creativecommons.org/ns#"
    xmlns:dc="http://purl.org/dc/elements/1.1/"
    xmlns:rdf="http://www.w3.org/1999/02/22-rdf-syntax-ns#">
    <g>
        <rect width="128" height="128" fill="#272727"/>
        <path d="m75.68 23.12c-2.727-0.7861-5.567 0.8022-6.353 3.53l-20.54 71.87c-0.7861 2.727 0.8022 5.567 3.53 6.353 2.727 0.7861 5.567-0.8022 6.353-3.53l20.54-71.87c0.7861-2.727-0.8022-5.567-3.53-6.353zm12.93 19.27c-2.005 2.005-2.005 5.262 0 7.268l14.33 14.34-14.34 14.34c-2.005 2.005-2.005 5.262 0 7.268 2.005 2.005 5.262 2.005 7.268 0l17.97-17.97c2.005-2.005 2.005-5.262 0-7.268l-17.97-17.97c-2.005-2.005-5.262-2.005-7.268 0zm-49.2 0c-2.005-2.005-5.262-2.005-7.268 0l-17.97 17.97c-2.005 2.005-2.005 5.262 0 7.268l17.97 17.97c2.005 2.005 5.262 2.005 7.268 0 2.005-2.005 2.005-5.262 0-7.268l-14.34-14.33 14.34-14.34c2.005-2.005 2.005-5.262 0-7.268z" fill="#fff" stroke-width=".1604"/>
    </g>
</svg>
